<mxfile host="app.diagrams.net" modified="2022-11-24T14:54:07.896Z" agent="5.0 (Windows NT 10.0; Win64; x64) AppleWebKit/537.36 (KHTML, like Gecko) Chrome/107.0.0.0 Safari/537.36" etag="i5IuXluAAg6iGx-wjGt7" version="20.6.0" type="github">
  <diagram id="kgpKYQtTHZ0yAKxKKP6v" name="Page-1">
    <mxGraphModel dx="1038" dy="521" grid="1" gridSize="10" guides="1" tooltips="1" connect="1" arrows="1" fold="1" page="1" pageScale="1" pageWidth="850" pageHeight="1100" math="0" shadow="0">
      <root>
        <mxCell id="0" />
        <mxCell id="1" parent="0" />
        <mxCell id="mrVHUTNCxFi9KoaVclq3-22" value="" style="rounded=0;whiteSpace=wrap;html=1;" vertex="1" parent="1">
          <mxGeometry x="120" y="240" width="580" height="110" as="geometry" />
        </mxCell>
        <mxCell id="3nuBFxr9cyL0pnOWT2aG-1" value=":Client" style="shape=umlLifeline;perimeter=lifelinePerimeter;container=1;collapsible=0;recursiveResize=0;rounded=0;shadow=0;strokeWidth=1;" parent="1" vertex="1">
          <mxGeometry x="120" y="80" width="100" height="300" as="geometry" />
        </mxCell>
        <mxCell id="3nuBFxr9cyL0pnOWT2aG-2" value="" style="points=[];perimeter=orthogonalPerimeter;rounded=0;shadow=0;strokeWidth=1;" parent="3nuBFxr9cyL0pnOWT2aG-1" vertex="1">
          <mxGeometry x="45" y="60" width="10" height="180" as="geometry" />
        </mxCell>
        <mxCell id="3nuBFxr9cyL0pnOWT2aG-5" value=":GrammarChecker interface" style="shape=umlLifeline;perimeter=lifelinePerimeter;container=1;collapsible=0;recursiveResize=0;rounded=0;shadow=0;strokeWidth=1;" parent="1" vertex="1">
          <mxGeometry x="260" y="80" width="160" height="300" as="geometry" />
        </mxCell>
        <mxCell id="mrVHUTNCxFi9KoaVclq3-10" value="" style="points=[];perimeter=orthogonalPerimeter;rounded=0;shadow=0;strokeWidth=1;" vertex="1" parent="3nuBFxr9cyL0pnOWT2aG-5">
          <mxGeometry x="75" y="70" width="10" height="170" as="geometry" />
        </mxCell>
        <mxCell id="mrVHUTNCxFi9KoaVclq3-1" value=":Lenguage" style="shape=umlLifeline;perimeter=lifelinePerimeter;container=1;collapsible=0;recursiveResize=0;rounded=0;shadow=0;strokeWidth=1;" vertex="1" parent="1">
          <mxGeometry x="440" y="80" width="100" height="300" as="geometry" />
        </mxCell>
        <mxCell id="mrVHUTNCxFi9KoaVclq3-2" value="" style="points=[];perimeter=orthogonalPerimeter;rounded=0;shadow=0;strokeWidth=1;" vertex="1" parent="mrVHUTNCxFi9KoaVclq3-1">
          <mxGeometry x="45" y="95" width="10" height="115" as="geometry" />
        </mxCell>
        <mxCell id="mrVHUTNCxFi9KoaVclq3-3" value=":Punctuation" style="shape=umlLifeline;perimeter=lifelinePerimeter;container=1;collapsible=0;recursiveResize=0;rounded=0;shadow=0;strokeWidth=1;" vertex="1" parent="1">
          <mxGeometry x="560" y="80" width="100" height="300" as="geometry" />
        </mxCell>
        <mxCell id="mrVHUTNCxFi9KoaVclq3-4" value="" style="points=[];perimeter=orthogonalPerimeter;rounded=0;shadow=0;strokeWidth=1;" vertex="1" parent="mrVHUTNCxFi9KoaVclq3-3">
          <mxGeometry x="45" y="130" width="10" height="100" as="geometry" />
        </mxCell>
        <mxCell id="mrVHUTNCxFi9KoaVclq3-5" value="" style="endArrow=classic;html=1;rounded=0;exitX=0.532;exitY=0.307;exitDx=0;exitDy=0;exitPerimeter=0;" edge="1" parent="1" source="3nuBFxr9cyL0pnOWT2aG-1">
          <mxGeometry width="50" height="50" relative="1" as="geometry">
            <mxPoint x="400" y="300" as="sourcePoint" />
            <mxPoint x="490" y="172" as="targetPoint" />
          </mxGeometry>
        </mxCell>
        <mxCell id="mrVHUTNCxFi9KoaVclq3-9" value="setLanguage" style="edgeLabel;html=1;align=center;verticalAlign=middle;resizable=0;points=[];" vertex="1" connectable="0" parent="mrVHUTNCxFi9KoaVclq3-5">
          <mxGeometry x="-0.3882" relative="1" as="geometry">
            <mxPoint x="22" as="offset" />
          </mxGeometry>
        </mxCell>
        <mxCell id="mrVHUTNCxFi9KoaVclq3-7" value="" style="endArrow=classic;html=1;rounded=0;exitX=0.524;exitY=0.235;exitDx=0;exitDy=0;exitPerimeter=0;" edge="1" parent="1" source="3nuBFxr9cyL0pnOWT2aG-1" target="3nuBFxr9cyL0pnOWT2aG-5">
          <mxGeometry width="50" height="50" relative="1" as="geometry">
            <mxPoint x="400" y="300" as="sourcePoint" />
            <mxPoint x="450" y="250" as="targetPoint" />
          </mxGeometry>
        </mxCell>
        <mxCell id="mrVHUTNCxFi9KoaVclq3-8" value="init" style="edgeLabel;html=1;align=center;verticalAlign=middle;resizable=0;points=[];" vertex="1" connectable="0" parent="mrVHUTNCxFi9KoaVclq3-7">
          <mxGeometry x="0.1849" relative="1" as="geometry">
            <mxPoint x="-31" as="offset" />
          </mxGeometry>
        </mxCell>
        <mxCell id="mrVHUTNCxFi9KoaVclq3-11" value="" style="endArrow=classic;html=1;rounded=0;exitX=0.492;exitY=0.39;exitDx=0;exitDy=0;exitPerimeter=0;" edge="1" parent="1" source="mrVHUTNCxFi9KoaVclq3-1" target="3nuBFxr9cyL0pnOWT2aG-5">
          <mxGeometry width="50" height="50" relative="1" as="geometry">
            <mxPoint x="400" y="300" as="sourcePoint" />
            <mxPoint x="450" y="250" as="targetPoint" />
          </mxGeometry>
        </mxCell>
        <mxCell id="mrVHUTNCxFi9KoaVclq3-12" value="Language" style="edgeLabel;html=1;align=center;verticalAlign=middle;resizable=0;points=[];" vertex="1" connectable="0" parent="mrVHUTNCxFi9KoaVclq3-11">
          <mxGeometry x="0.3066" y="1" relative="1" as="geometry">
            <mxPoint x="19" y="-3" as="offset" />
          </mxGeometry>
        </mxCell>
        <mxCell id="mrVHUTNCxFi9KoaVclq3-13" value="" style="endArrow=classic;html=1;rounded=0;exitX=0.556;exitY=0.433;exitDx=0;exitDy=0;exitPerimeter=0;" edge="1" parent="1" source="3nuBFxr9cyL0pnOWT2aG-1" target="mrVHUTNCxFi9KoaVclq3-3">
          <mxGeometry width="50" height="50" relative="1" as="geometry">
            <mxPoint x="400" y="300" as="sourcePoint" />
            <mxPoint x="450" y="250" as="targetPoint" />
          </mxGeometry>
        </mxCell>
        <mxCell id="mrVHUTNCxFi9KoaVclq3-14" value="correctPunctuation" style="edgeLabel;html=1;align=center;verticalAlign=middle;resizable=0;points=[];" vertex="1" connectable="0" parent="mrVHUTNCxFi9KoaVclq3-13">
          <mxGeometry x="0.7552" y="1" relative="1" as="geometry">
            <mxPoint x="-17" as="offset" />
          </mxGeometry>
        </mxCell>
        <mxCell id="mrVHUTNCxFi9KoaVclq3-15" value="" style="endArrow=classic;html=1;rounded=0;" edge="1" parent="1">
          <mxGeometry width="50" height="50" relative="1" as="geometry">
            <mxPoint x="169.5" y="263" as="sourcePoint" />
            <mxPoint x="340" y="263" as="targetPoint" />
          </mxGeometry>
        </mxCell>
        <mxCell id="mrVHUTNCxFi9KoaVclq3-16" value="checkText" style="edgeLabel;html=1;align=center;verticalAlign=middle;resizable=0;points=[];" vertex="1" connectable="0" parent="mrVHUTNCxFi9KoaVclq3-15">
          <mxGeometry x="0.4299" y="-3" relative="1" as="geometry">
            <mxPoint x="-31" as="offset" />
          </mxGeometry>
        </mxCell>
        <mxCell id="mrVHUTNCxFi9KoaVclq3-17" value="" style="endArrow=classic;html=1;rounded=0;exitX=0.5;exitY=0.683;exitDx=0;exitDy=0;exitPerimeter=0;" edge="1" parent="1" source="mrVHUTNCxFi9KoaVclq3-1" target="3nuBFxr9cyL0pnOWT2aG-5">
          <mxGeometry width="50" height="50" relative="1" as="geometry">
            <mxPoint x="400" y="300" as="sourcePoint" />
            <mxPoint x="450" y="250" as="targetPoint" />
          </mxGeometry>
        </mxCell>
        <mxCell id="mrVHUTNCxFi9KoaVclq3-19" value="send Error (class(" style="edgeLabel;html=1;align=center;verticalAlign=middle;resizable=0;points=[];" vertex="1" connectable="0" parent="mrVHUTNCxFi9KoaVclq3-17">
          <mxGeometry x="-0.1282" y="1" relative="1" as="geometry">
            <mxPoint as="offset" />
          </mxGeometry>
        </mxCell>
        <mxCell id="mrVHUTNCxFi9KoaVclq3-18" value="" style="endArrow=classic;html=1;rounded=0;exitX=0.468;exitY=0.766;exitDx=0;exitDy=0;exitPerimeter=0;" edge="1" parent="1" source="mrVHUTNCxFi9KoaVclq3-3" target="3nuBFxr9cyL0pnOWT2aG-5">
          <mxGeometry width="50" height="50" relative="1" as="geometry">
            <mxPoint x="400" y="300" as="sourcePoint" />
            <mxPoint x="450" y="250" as="targetPoint" />
          </mxGeometry>
        </mxCell>
        <mxCell id="mrVHUTNCxFi9KoaVclq3-20" value="send Error (class(" style="edgeLabel;html=1;align=center;verticalAlign=middle;resizable=0;points=[];" vertex="1" connectable="0" parent="mrVHUTNCxFi9KoaVclq3-18">
          <mxGeometry x="0.275" relative="1" as="geometry">
            <mxPoint as="offset" />
          </mxGeometry>
        </mxCell>
        <mxCell id="mrVHUTNCxFi9KoaVclq3-23" value="loop" style="text;html=1;align=center;verticalAlign=middle;resizable=0;points=[];autosize=1;strokeColor=none;fillColor=none;" vertex="1" parent="1">
          <mxGeometry x="110" y="240" width="50" height="30" as="geometry" />
        </mxCell>
      </root>
    </mxGraphModel>
  </diagram>
</mxfile>
